<mxfile host="app.diagrams.net" modified="2023-09-15T05:42:55.499Z" agent="Mozilla/5.0 (Windows NT 10.0; Win64; x64) AppleWebKit/537.36 (KHTML, like Gecko) Chrome/116.0.0.0 Safari/537.36 Edg/116.0.1938.81" etag="awZIYAEOYlbYV9YR_0wj" version="21.7.5" type="device">
  <diagram name="Página-1" id="A6UBOEAKrP7da6Y5czLi">
    <mxGraphModel dx="832" dy="439" grid="0" gridSize="10" guides="1" tooltips="1" connect="1" arrows="1" fold="1" page="1" pageScale="1" pageWidth="827" pageHeight="1169" math="0" shadow="0">
      <root>
        <mxCell id="0" />
        <mxCell id="1" parent="0" />
        <mxCell id="FumH8ywqAqdo8fMkTDnR-1" value="INICIO" style="rounded=1;whiteSpace=wrap;html=1;fillColor=#ffe6cc;strokeColor=#d79b00;" vertex="1" parent="1">
          <mxGeometry x="354" y="90" width="120" height="40" as="geometry" />
        </mxCell>
        <mxCell id="FumH8ywqAqdo8fMkTDnR-2" value="" style="endArrow=classic;html=1;rounded=0;exitX=0.5;exitY=1;exitDx=0;exitDy=0;entryX=0.5;entryY=0;entryDx=0;entryDy=0;" edge="1" parent="1" source="FumH8ywqAqdo8fMkTDnR-1" target="FumH8ywqAqdo8fMkTDnR-3">
          <mxGeometry width="50" height="50" relative="1" as="geometry">
            <mxPoint x="390" y="260" as="sourcePoint" />
            <mxPoint x="414" y="200" as="targetPoint" />
          </mxGeometry>
        </mxCell>
        <mxCell id="FumH8ywqAqdo8fMkTDnR-3" value="Número X" style="rounded=0;whiteSpace=wrap;html=1;fillColor=#dae8fc;strokeColor=#6c8ebf;" vertex="1" parent="1">
          <mxGeometry x="354" y="180" width="120" height="30" as="geometry" />
        </mxCell>
        <mxCell id="FumH8ywqAqdo8fMkTDnR-5" value="" style="endArrow=classic;html=1;rounded=0;" edge="1" parent="1">
          <mxGeometry width="50" height="50" relative="1" as="geometry">
            <mxPoint x="413" y="210" as="sourcePoint" />
            <mxPoint x="413" y="250" as="targetPoint" />
          </mxGeometry>
        </mxCell>
        <mxCell id="FumH8ywqAqdo8fMkTDnR-6" value="Y= Lista de 2,3,5,7" style="rounded=0;whiteSpace=wrap;html=1;fillColor=#dae8fc;strokeColor=#6c8ebf;" vertex="1" parent="1">
          <mxGeometry x="354" y="250" width="120" height="30" as="geometry" />
        </mxCell>
        <mxCell id="FumH8ywqAqdo8fMkTDnR-7" style="edgeStyle=orthogonalEdgeStyle;rounded=0;orthogonalLoop=1;jettySize=auto;html=1;exitX=0.5;exitY=1;exitDx=0;exitDy=0;" edge="1" parent="1" source="FumH8ywqAqdo8fMkTDnR-6" target="FumH8ywqAqdo8fMkTDnR-6">
          <mxGeometry relative="1" as="geometry" />
        </mxCell>
        <mxCell id="FumH8ywqAqdo8fMkTDnR-8" value="" style="endArrow=classic;html=1;rounded=0;exitX=0.5;exitY=1;exitDx=0;exitDy=0;" edge="1" parent="1" source="FumH8ywqAqdo8fMkTDnR-6">
          <mxGeometry width="50" height="50" relative="1" as="geometry">
            <mxPoint x="380" y="240" as="sourcePoint" />
            <mxPoint x="414" y="320" as="targetPoint" />
          </mxGeometry>
        </mxCell>
        <mxCell id="FumH8ywqAqdo8fMkTDnR-9" value="residuo x/2 valores de y=0?" style="rhombus;whiteSpace=wrap;html=1;fillColor=#e1d5e7;strokeColor=#9673a6;" vertex="1" parent="1">
          <mxGeometry x="329" y="320" width="170" height="170" as="geometry" />
        </mxCell>
        <mxCell id="FumH8ywqAqdo8fMkTDnR-10" value="" style="endArrow=classic;html=1;rounded=0;exitX=0;exitY=0.5;exitDx=0;exitDy=0;entryX=0.491;entryY=-0.107;entryDx=0;entryDy=0;entryPerimeter=0;" edge="1" parent="1" source="FumH8ywqAqdo8fMkTDnR-9" target="FumH8ywqAqdo8fMkTDnR-15">
          <mxGeometry relative="1" as="geometry">
            <mxPoint x="260" y="460" as="sourcePoint" />
            <mxPoint x="220" y="480" as="targetPoint" />
          </mxGeometry>
        </mxCell>
        <mxCell id="FumH8ywqAqdo8fMkTDnR-11" value="SI" style="edgeLabel;resizable=0;html=1;align=center;verticalAlign=middle;" connectable="0" vertex="1" parent="FumH8ywqAqdo8fMkTDnR-10">
          <mxGeometry relative="1" as="geometry" />
        </mxCell>
        <mxCell id="FumH8ywqAqdo8fMkTDnR-13" value="" style="endArrow=classic;html=1;rounded=0;exitX=1;exitY=0.5;exitDx=0;exitDy=0;entryX=0.484;entryY=-0.141;entryDx=0;entryDy=0;entryPerimeter=0;" edge="1" parent="1" source="FumH8ywqAqdo8fMkTDnR-9" target="FumH8ywqAqdo8fMkTDnR-16">
          <mxGeometry relative="1" as="geometry">
            <mxPoint x="500" y="400" as="sourcePoint" />
            <mxPoint x="600" y="480" as="targetPoint" />
          </mxGeometry>
        </mxCell>
        <mxCell id="FumH8ywqAqdo8fMkTDnR-14" value="NO" style="edgeLabel;resizable=0;html=1;align=center;verticalAlign=middle;" connectable="0" vertex="1" parent="FumH8ywqAqdo8fMkTDnR-13">
          <mxGeometry relative="1" as="geometry" />
        </mxCell>
        <mxCell id="FumH8ywqAqdo8fMkTDnR-15" value="x no es primo" style="rounded=0;whiteSpace=wrap;html=1;fillColor=#dae8fc;strokeColor=#6c8ebf;" vertex="1" parent="1">
          <mxGeometry x="209" y="490" width="120" height="30" as="geometry" />
        </mxCell>
        <mxCell id="FumH8ywqAqdo8fMkTDnR-16" value="x es primo" style="rounded=0;whiteSpace=wrap;html=1;fillColor=#dae8fc;strokeColor=#6c8ebf;" vertex="1" parent="1">
          <mxGeometry x="474" y="490" width="120" height="30" as="geometry" />
        </mxCell>
        <mxCell id="FumH8ywqAqdo8fMkTDnR-19" value="x:x-1" style="rounded=0;whiteSpace=wrap;html=1;fillColor=#dae8fc;strokeColor=#6c8ebf;" vertex="1" parent="1">
          <mxGeometry x="370" y="567" width="70" height="35" as="geometry" />
        </mxCell>
        <mxCell id="FumH8ywqAqdo8fMkTDnR-21" value="" style="curved=1;endArrow=none;html=1;rounded=0;endFill=0;exitX=0.5;exitY=1;exitDx=0;exitDy=0;entryX=0.028;entryY=0.624;entryDx=0;entryDy=0;entryPerimeter=0;" edge="1" parent="1" source="FumH8ywqAqdo8fMkTDnR-15" target="FumH8ywqAqdo8fMkTDnR-19">
          <mxGeometry width="50" height="50" relative="1" as="geometry">
            <mxPoint x="270" y="600" as="sourcePoint" />
            <mxPoint x="320" y="550" as="targetPoint" />
            <Array as="points">
              <mxPoint x="320" y="550" />
              <mxPoint x="310" y="580" />
            </Array>
          </mxGeometry>
        </mxCell>
        <mxCell id="FumH8ywqAqdo8fMkTDnR-22" value="" style="curved=1;endArrow=none;html=1;rounded=0;entryX=1;entryY=0.5;entryDx=0;entryDy=0;endFill=0;exitX=0.532;exitY=1.048;exitDx=0;exitDy=0;exitPerimeter=0;" edge="1" parent="1" source="FumH8ywqAqdo8fMkTDnR-16" target="FumH8ywqAqdo8fMkTDnR-19">
          <mxGeometry width="50" height="50" relative="1" as="geometry">
            <mxPoint x="610" y="530" as="sourcePoint" />
            <mxPoint x="560" y="550" as="targetPoint" />
            <Array as="points">
              <mxPoint x="500" y="550" />
              <mxPoint x="510" y="570" />
            </Array>
          </mxGeometry>
        </mxCell>
        <mxCell id="FumH8ywqAqdo8fMkTDnR-23" value="x menor a 2" style="rhombus;whiteSpace=wrap;html=1;fillColor=#e1d5e7;strokeColor=#9673a6;" vertex="1" parent="1">
          <mxGeometry x="419" y="620" width="80" height="80" as="geometry" />
        </mxCell>
        <mxCell id="FumH8ywqAqdo8fMkTDnR-24" value="" style="curved=1;endArrow=classic;html=1;rounded=0;entryX=0;entryY=0.5;entryDx=0;entryDy=0;exitX=0.064;exitY=1.051;exitDx=0;exitDy=0;exitPerimeter=0;" edge="1" parent="1" source="FumH8ywqAqdo8fMkTDnR-19" target="FumH8ywqAqdo8fMkTDnR-23">
          <mxGeometry width="50" height="50" relative="1" as="geometry">
            <mxPoint x="410" y="670" as="sourcePoint" />
            <mxPoint x="460" y="620" as="targetPoint" />
            <Array as="points">
              <mxPoint x="390" y="620" />
              <mxPoint x="410" y="620" />
            </Array>
          </mxGeometry>
        </mxCell>
        <mxCell id="FumH8ywqAqdo8fMkTDnR-25" value="" style="endArrow=classic;html=1;exitX=1;exitY=0.5;exitDx=0;exitDy=0;curved=1;entryX=1;entryY=0.5;entryDx=0;entryDy=0;" edge="1" parent="1" source="FumH8ywqAqdo8fMkTDnR-23" target="FumH8ywqAqdo8fMkTDnR-9">
          <mxGeometry relative="1" as="geometry">
            <mxPoint x="550" y="570" as="sourcePoint" />
            <mxPoint x="590" y="370" as="targetPoint" />
            <Array as="points">
              <mxPoint x="610" y="570" />
              <mxPoint x="630" y="520" />
              <mxPoint x="620" y="440" />
            </Array>
          </mxGeometry>
        </mxCell>
        <mxCell id="FumH8ywqAqdo8fMkTDnR-26" value="NO" style="edgeLabel;resizable=0;html=1;align=center;verticalAlign=middle;" connectable="0" vertex="1" parent="FumH8ywqAqdo8fMkTDnR-25">
          <mxGeometry relative="1" as="geometry">
            <mxPoint x="-26" y="87" as="offset" />
          </mxGeometry>
        </mxCell>
        <mxCell id="FumH8ywqAqdo8fMkTDnR-30" value="" style="endArrow=classic;html=1;rounded=0;exitX=0.5;exitY=1;exitDx=0;exitDy=0;" edge="1" parent="1" source="FumH8ywqAqdo8fMkTDnR-23">
          <mxGeometry relative="1" as="geometry">
            <mxPoint x="390" y="760" as="sourcePoint" />
            <mxPoint x="460" y="760" as="targetPoint" />
            <Array as="points">
              <mxPoint x="460" y="750" />
            </Array>
          </mxGeometry>
        </mxCell>
        <mxCell id="FumH8ywqAqdo8fMkTDnR-31" value="SI" style="edgeLabel;resizable=0;html=1;align=center;verticalAlign=middle;" connectable="0" vertex="1" parent="FumH8ywqAqdo8fMkTDnR-30">
          <mxGeometry relative="1" as="geometry" />
        </mxCell>
        <mxCell id="FumH8ywqAqdo8fMkTDnR-32" value="&lt;font&gt;lFin&lt;/font&gt;" style="rounded=1;whiteSpace=wrap;html=1;fillColor=#ffe6cc;strokeColor=#d79b00;" vertex="1" parent="1">
          <mxGeometry x="399" y="740" width="120" height="29" as="geometry" />
        </mxCell>
      </root>
    </mxGraphModel>
  </diagram>
</mxfile>
